<mxfile host="app.diagrams.net" modified="2023-03-11T20:04:52.676Z" agent="5.0 (Windows NT 10.0; Win64; x64) AppleWebKit/537.36 (KHTML, like Gecko) Chrome/111.0.0.0 Safari/537.36" etag="yXW5rBo7SArLXG7XQLfK" version="21.0.6" type="github">
  <diagram name="PÃ¡gina-1" id="GgPYX4N8JM6UEkdb0cbH">
    <mxGraphModel dx="1257" dy="680" grid="1" gridSize="10" guides="1" tooltips="1" connect="1" arrows="1" fold="1" page="1" pageScale="1" pageWidth="1169" pageHeight="827" math="0" shadow="0">
      <root>
        <mxCell id="0" />
        <mxCell id="1" parent="0" />
        <mxCell id="VW4w8P7txbQaL8yXionI-1" value="" style="rounded=1;whiteSpace=wrap;html=1;" vertex="1" parent="1">
          <mxGeometry x="50" y="90" width="300" height="150" as="geometry" />
        </mxCell>
        <mxCell id="VW4w8P7txbQaL8yXionI-2" value="" style="rounded=1;whiteSpace=wrap;html=1;" vertex="1" parent="1">
          <mxGeometry x="50" y="320" width="300" height="150" as="geometry" />
        </mxCell>
        <mxCell id="VW4w8P7txbQaL8yXionI-3" value="" style="rounded=1;whiteSpace=wrap;html=1;" vertex="1" parent="1">
          <mxGeometry x="90" y="110" width="220" height="110" as="geometry" />
        </mxCell>
        <mxCell id="VW4w8P7txbQaL8yXionI-4" value="" style="rounded=1;whiteSpace=wrap;html=1;" vertex="1" parent="1">
          <mxGeometry x="90" y="340" width="220" height="110" as="geometry" />
        </mxCell>
        <mxCell id="VW4w8P7txbQaL8yXionI-5" value="" style="outlineConnect=0;dashed=0;verticalLabelPosition=bottom;verticalAlign=top;align=center;html=1;shape=mxgraph.aws3.virtual_private_cloud;fillColor=#F58534;gradientColor=none;" vertex="1" parent="1">
          <mxGeometry x="60" y="138" width="79.5" height="54" as="geometry" />
        </mxCell>
        <mxCell id="VW4w8P7txbQaL8yXionI-6" value="" style="outlineConnect=0;dashed=0;verticalLabelPosition=bottom;verticalAlign=top;align=center;html=1;shape=mxgraph.aws3.cloud_2;fillColor=#F58534;gradientColor=none;" vertex="1" parent="1">
          <mxGeometry x="15" y="35" width="75" height="75" as="geometry" />
        </mxCell>
        <mxCell id="VW4w8P7txbQaL8yXionI-7" value="" style="outlineConnect=0;dashed=0;verticalLabelPosition=bottom;verticalAlign=top;align=center;html=1;shape=mxgraph.aws3.cloud_2;fillColor=#F58534;gradientColor=none;" vertex="1" parent="1">
          <mxGeometry x="15" y="280" width="75" height="75" as="geometry" />
        </mxCell>
        <mxCell id="VW4w8P7txbQaL8yXionI-8" value="" style="outlineConnect=0;dashed=0;verticalLabelPosition=bottom;verticalAlign=top;align=center;html=1;shape=mxgraph.aws3.virtual_private_cloud;fillColor=#F58534;gradientColor=none;" vertex="1" parent="1">
          <mxGeometry x="60" y="368" width="79.5" height="54" as="geometry" />
        </mxCell>
        <mxCell id="VW4w8P7txbQaL8yXionI-9" value="" style="rounded=1;whiteSpace=wrap;html=1;" vertex="1" parent="1">
          <mxGeometry x="600" y="210" width="300" height="150" as="geometry" />
        </mxCell>
        <mxCell id="VW4w8P7txbQaL8yXionI-10" value="" style="rounded=1;whiteSpace=wrap;html=1;" vertex="1" parent="1">
          <mxGeometry x="640" y="230" width="220" height="110" as="geometry" />
        </mxCell>
        <mxCell id="VW4w8P7txbQaL8yXionI-13" value="" style="endArrow=none;html=1;rounded=0;entryX=0;entryY=0.5;entryDx=0;entryDy=0;" edge="1" parent="1" target="VW4w8P7txbQaL8yXionI-9">
          <mxGeometry width="50" height="50" relative="1" as="geometry">
            <mxPoint x="350" y="160" as="sourcePoint" />
            <mxPoint x="510" y="250" as="targetPoint" />
          </mxGeometry>
        </mxCell>
        <mxCell id="VW4w8P7txbQaL8yXionI-15" value="" style="endArrow=none;html=1;rounded=0;exitX=1;exitY=0.5;exitDx=0;exitDy=0;" edge="1" parent="1" source="VW4w8P7txbQaL8yXionI-2">
          <mxGeometry width="50" height="50" relative="1" as="geometry">
            <mxPoint x="530" y="310" as="sourcePoint" />
            <mxPoint x="600" y="280" as="targetPoint" />
          </mxGeometry>
        </mxCell>
        <mxCell id="VW4w8P7txbQaL8yXionI-16" value="" style="outlineConnect=0;dashed=0;verticalLabelPosition=bottom;verticalAlign=top;align=center;html=1;shape=mxgraph.aws3.cloud_2;fillColor=#F58534;gradientColor=none;" vertex="1" parent="1">
          <mxGeometry x="560" y="155" width="75" height="75" as="geometry" />
        </mxCell>
        <mxCell id="VW4w8P7txbQaL8yXionI-17" value="" style="outlineConnect=0;dashed=0;verticalLabelPosition=bottom;verticalAlign=top;align=center;html=1;shape=mxgraph.aws3.virtual_private_cloud;fillColor=#F58534;gradientColor=none;" vertex="1" parent="1">
          <mxGeometry x="610" y="250" width="79.5" height="54" as="geometry" />
        </mxCell>
        <mxCell id="VW4w8P7txbQaL8yXionI-18" value="&lt;font style=&quot;font-size: 29px;&quot;&gt;EC2&lt;/font&gt;" style="text;strokeColor=none;align=center;fillColor=none;html=1;verticalAlign=middle;whiteSpace=wrap;rounded=0;" vertex="1" parent="1">
          <mxGeometry x="710" y="265" width="80" height="40" as="geometry" />
        </mxCell>
        <mxCell id="VW4w8P7txbQaL8yXionI-19" value="&lt;font style=&quot;font-size: 29px;&quot;&gt;EC2&lt;/font&gt;" style="text;strokeColor=none;align=center;fillColor=none;html=1;verticalAlign=middle;whiteSpace=wrap;rounded=0;" vertex="1" parent="1">
          <mxGeometry x="160" y="382" width="80" height="40" as="geometry" />
        </mxCell>
        <mxCell id="VW4w8P7txbQaL8yXionI-20" value="&lt;font style=&quot;font-size: 29px;&quot;&gt;EC2&lt;/font&gt;" style="text;strokeColor=none;align=center;fillColor=none;html=1;verticalAlign=middle;whiteSpace=wrap;rounded=0;" vertex="1" parent="1">
          <mxGeometry x="160" y="152" width="80" height="40" as="geometry" />
        </mxCell>
      </root>
    </mxGraphModel>
  </diagram>
</mxfile>
